<svg xmlns="http://www.w3.org/2000/svg" width="690.086" height="142.38" viewBox="0 0 690.086 142.38">
  <title>logo</title>
  <g>
    <g>
      <path d="M634.8,122.429l-.252.2-1.13-1.3-.109-.095-.107-.149-.637-.758A223.658,223.658,0,0,1,616.25,98.19c-10.4-16.189-16.045-30.1-16.776-41.356-.438-6.737-.6-12.911-.477-18.35l.044-1.959,1.959,0A16.317,16.317,0,0,0,617.268,20.23c0-.529-.027-1.077-.081-1.63l-.166-1.667,17.667-5.056.07.02-.582,2.085.585,2.048-13.479,3.859v.376a20.319,20.319,0,0,1-17.865,20.124l-.437.053,0,.441c-.034,4.747.135,10.026.5,15.69.678,10.416,6.261,24.057,16.147,39.447a219.624,219.624,0,0,0,14.765,20.232l.387.469.192-.234.449-.484a220.691,220.691,0,0,0,14.56-19.983c9.887-15.39,15.47-29.031,16.147-39.447.368-5.664.537-10.943.5-15.69l0-.441-.437-.053a20.319,20.319,0,0,1-17.865-20.124v-.376l-13.483-3.86.59-2.049-.6-2.079.071-.02.57.155,17.11,4.9-.165,1.667c-.053.542-.081,1.091-.081,1.63A16.316,16.316,0,0,0,668.6,36.522l1.96,0,.044,1.959c.121,5.45-.039,11.624-.477,18.35C669.4,68.086,663.755,82,653.355,98.19a224.13,224.13,0,0,1-16.316,22.141l-.118.139v.008l-.734.854-1.132,1.3Z" fill="#fff"/>
      <path d="M635.547,12.577l16.5,4.722-.124,1.251c-.055.561-.084,1.126-.084,1.68A16.817,16.817,0,0,0,668.6,37.022l1.471,0,.033,1.471c.121,5.43-.039,11.589-.476,18.306-.726,11.166-6.344,25-16.7,41.118a223.24,223.24,0,0,1-16.278,22.089l-.159.2-.687.8-.818.94-.191-.153-.19.153-.815-.936-.059-.068-.067-.053-.058-.083-.025-.036-.029-.033-.611-.724A223.2,223.2,0,0,1,616.67,97.919C606.317,81.8,600.7,67.967,599.973,56.8c-.437-6.716-.6-12.875-.476-18.306l.033-1.471,1.471,0A16.817,16.817,0,0,0,617.768,20.23c0-.553-.029-1.118-.084-1.679L617.56,17.3l16.488-4.719-.21.754-.105.378-.076.272.077.271.107.373.3,1.059L621.506,19.3l-.724.207v.753a19.819,19.819,0,0,1-17.424,19.629l-.874.1-.007.881c-.035,4.756.135,10.048.5,15.727.682,10.5,6.293,24.223,16.226,39.685a220.5,220.5,0,0,0,14.8,20.279l.773.939.149-.181.023.035.856-1.043A221.3,221.3,0,0,0,650.4,96.291c9.933-15.462,15.543-29.185,16.226-39.685.369-5.681.539-10.972.5-15.728l-.007-.88-.874-.1a19.819,19.819,0,0,1-17.424-19.629v-.753L648.1,19.3,635.46,15.687l.3-1.058.107-.373.079-.276-.08-.276-.108-.377-.215-.75m-.86-1.22-18.205,5.211.207,2.081c.052.529.079,1.061.079,1.581A15.815,15.815,0,0,1,601,36.022l-2.448,0-.054,2.447c-.122,5.459.038,11.647.477,18.393.737,11.338,6.408,25.332,16.854,41.594a223.278,223.278,0,0,0,16.355,22.194l.612.723.14.2.107.086,1.445,1.659.314-.252.315.252,1.448-1.663.856-.994v-.01A223.278,223.278,0,0,0,653.776,98.46C664.222,82.2,669.893,68.2,670.63,56.866c.439-6.746.6-12.934.477-18.393l-.054-2.447-2.448,0A15.815,15.815,0,0,1,652.837,20.23c0-.52.027-1.052.079-1.581l.207-2.081L635.6,11.553l-.7-.191-.1.028-.115-.033Zm.115,3-.106-.373.105-.377.108.377-.107.373Zm-.026,101.581A220.081,220.081,0,0,1,620.047,95.75c-9.841-15.319-15.4-28.878-16.069-39.209-.369-5.666-.537-10.92-.5-15.655a20.844,20.844,0,0,0,18.3-20.62L634.8,16.539l13.022,3.727a20.844,20.844,0,0,0,18.305,20.62c.035,4.735-.134,9.989-.5,15.655-.672,10.331-6.228,23.89-16.069,39.209a220.148,220.148,0,0,1-14.525,19.936l-.024-.036-.233.284Z"/>
    </g>
    <path d="M634.709,13.968l-.018-.005L619.183,18.4q.09.9.091,1.828A18.3,18.3,0,0,1,601,38.529c-.119,5.307.028,11.338.472,18.175,1.7,26.117,31.129,60.611,33.215,63.025v.007c.057.066.1.111.108.126l0,0,0,0c.012-.015.051-.06.108-.126v-.007C637,117.315,666.431,82.821,668.129,56.7c.444-6.837.591-12.868.472-18.175a18.3,18.3,0,0,1-18.27-18.3q0-.926.091-1.828l-15.508-4.439-.018.005" fill="#1fbcd3" stroke="#000" stroke-miterlimit="10"/>
  </g>
  <g>
    <path d="M39.163,73.61H28.949L27.53,78.416H18.343L29.287,49.3H39.1L50.042,78.416H40.62Zm-1.866-6.3L34.083,56.847,30.9,67.314Z"/>
    <path d="M50.221,49.3h8.545l3.077,16.3,4.5-16.3h8.515l4.514,16.279L82.455,49.3h8.5L84.538,78.416H75.715L70.609,60.084,65.521,78.416H56.7Z"/>
    <path d="M92.327,68.783l8.561-.536a6.531,6.531,0,0,0,1.131,3.178,4.757,4.757,0,0,0,3.973,1.768,4.4,4.4,0,0,0,2.969-.9A2.7,2.7,0,0,0,110,70.194a2.673,2.673,0,0,0-.994-2.026q-.993-.894-4.607-1.688-5.919-1.332-8.441-3.536a7.107,7.107,0,0,1-2.543-5.621,7.63,7.63,0,0,1,1.3-4.24,8.617,8.617,0,0,1,3.912-3.138,18.256,18.256,0,0,1,7.16-1.142q5.581,0,8.51,2.075t3.486,6.6l-8.48.5a3.963,3.963,0,0,0-4.41-3.754,3.609,3.609,0,0,0-2.363.665,2.038,2.038,0,0,0-.794,1.619,1.618,1.618,0,0,0,.655,1.251,7.366,7.366,0,0,0,3.019,1.073,37.809,37.809,0,0,1,8.452,2.572,8.864,8.864,0,0,1,3.712,3.228,8.166,8.166,0,0,1,1.163,4.309,9.23,9.23,0,0,1-1.549,5.164,9.7,9.7,0,0,1-4.33,3.585,17.484,17.484,0,0,1-7.011,1.222q-7.429,0-10.289-2.86A11.282,11.282,0,0,1,92.327,68.783Z"/>
    <path d="M121.186,64.672h11.758v6.256H121.186Z"/>
    <path d="M135.248,68.783l8.561-.536a6.531,6.531,0,0,0,1.131,3.178,4.758,4.758,0,0,0,3.972,1.768,4.392,4.392,0,0,0,2.969-.9,2.7,2.7,0,0,0,1.043-2.095,2.67,2.67,0,0,0-.992-2.026q-.993-.894-4.608-1.688-5.921-1.332-8.441-3.536a7.11,7.11,0,0,1-2.543-5.621,7.637,7.637,0,0,1,1.3-4.24,8.625,8.625,0,0,1,3.913-3.138,18.256,18.256,0,0,1,7.16-1.142q5.58,0,8.511,2.075t3.485,6.6l-8.481.5a3.962,3.962,0,0,0-4.408-3.754,3.611,3.611,0,0,0-2.364.665,2.039,2.039,0,0,0-.795,1.619,1.619,1.619,0,0,0,.656,1.251,7.366,7.366,0,0,0,3.018,1.073,37.727,37.727,0,0,1,8.451,2.572,8.88,8.88,0,0,1,3.715,3.228,8.184,8.184,0,0,1,1.162,4.309,9.238,9.238,0,0,1-1.549,5.164,9.69,9.69,0,0,1-4.33,3.585,17.487,17.487,0,0,1-7.011,1.222q-7.43,0-10.289-2.86A11.277,11.277,0,0,1,135.248,68.783Z"/>
    <path d="M184.092,73.61H173.878l-1.419,4.806h-9.187L174.216,49.3h9.814l10.941,29.117h-9.422Zm-1.865-6.3-3.215-10.467-3.18,10.467Z"/>
    <path d="M211.735,67.87V61.812h13.9V74.225a28.4,28.4,0,0,1-7.06,3.7,23.943,23.943,0,0,1-7.28.984,17.692,17.692,0,0,1-8.451-1.768,12.1,12.1,0,0,1-5.064-5.263,17.294,17.294,0,0,1-1.8-8.024,16.738,16.738,0,0,1,1.967-8.292,12.73,12.73,0,0,1,5.759-5.353,18.741,18.741,0,0,1,7.964-1.41,22.4,22.4,0,0,1,7.22.873,9.377,9.377,0,0,1,3.973,2.712,12.05,12.05,0,0,1,2.373,4.657l-8.68,1.549a4.7,4.7,0,0,0-1.817-2.522,5.677,5.677,0,0,0-3.267-.874,5.89,5.89,0,0,0-4.718,2.056Q205,59.309,205,63.758q0,4.728,1.778,6.753a6.241,6.241,0,0,0,4.955,2.026,9.4,9.4,0,0,0,2.88-.437,15.5,15.5,0,0,0,3.137-1.489V67.87Z"/>
    <path d="M230.96,49.3h24.113v6.217h-15.1v4.628h14v5.938h-14v5.74h15.532v6.594H230.96Z"/>
    <path d="M260.256,49.3h11.832l4.564,17.717,4.53-17.717h11.826V78.416h-7.369v-22.2l-5.678,22.205h-6.67l-5.666-22.2V78.416h-7.369Z"/>
    <path d="M316.649,73.61H306.434l-1.42,4.806h-9.186L306.772,49.3h9.814l10.941,29.117h-9.421Zm-1.867-6.3-3.213-10.467-3.181,10.467Z"/>
    <path d="M330.426,49.3h9v11l9.424-11h11.967L350.19,60.289l11.1,18.127h-11.08l-6.138-11.974-4.649,4.869v7.1h-9Z"/>
    <path d="M364.25,49.3h24.113v6.217h-15.1v4.628h14v5.938h-14v5.74H388.8v6.594H364.25Z"/>
    <path d="M393.765,78.416V49.3h15a21.8,21.8,0,0,1,6.375.715,6.79,6.79,0,0,1,3.556,2.652,8.22,8.22,0,0,1-2.525,11.748,10.883,10.883,0,0,1-3.16,1.152,6.086,6.086,0,0,1,3.781,2.6,11.35,11.35,0,0,1,1.26,1.809l4.358,8.437H412.239l-4.809-8.9a6.77,6.77,0,0,0-1.629-2.244,3.78,3.78,0,0,0-2.2-.675h-.8V78.416ZM402.8,61.1H406.6a13.535,13.535,0,0,0,2.384-.4,2.375,2.375,0,0,0,1.459-.914,2.95,2.95,0,0,0-.327-3.853,5.409,5.409,0,0,0-3.357-.755H402.8Z"/>
    <path d="M423.2,64.672h11.757v6.256H423.2Z"/>
    <path d="M453.469,67.87V61.812h13.9V74.225a28.42,28.42,0,0,1-7.06,3.7,23.95,23.95,0,0,1-7.279.984,17.691,17.691,0,0,1-8.452-1.768,12.1,12.1,0,0,1-5.064-5.263,17.294,17.294,0,0,1-1.8-8.024,16.738,16.738,0,0,1,1.966-8.292,12.728,12.728,0,0,1,5.76-5.353,18.741,18.741,0,0,1,7.964-1.41,22.4,22.4,0,0,1,7.22.873,9.38,9.38,0,0,1,3.972,2.712,12.037,12.037,0,0,1,2.374,4.657l-8.68,1.549a4.7,4.7,0,0,0-1.818-2.522,5.673,5.673,0,0,0-3.267-.874,5.888,5.888,0,0,0-4.717,2.056q-1.757,2.055-1.757,6.5,0,4.728,1.777,6.753a6.245,6.245,0,0,0,4.956,2.026,9.4,9.4,0,0,0,2.879-.437,15.533,15.533,0,0,0,3.139-1.489V67.87Z"/>
    <path d="M491.662,49.3h8.977V66.647a14.612,14.612,0,0,1-.8,4.872,10.537,10.537,0,0,1-2.522,4.01,10.062,10.062,0,0,1-3.606,2.411,18.115,18.115,0,0,1-6.3.973,39.509,39.509,0,0,1-4.638-.3,12.143,12.143,0,0,1-4.2-1.181,10.524,10.524,0,0,1-3.089-2.51,9.2,9.2,0,0,1-1.916-3.355,17.35,17.35,0,0,1-.834-4.922V49.3h8.976V67.06a5.065,5.065,0,0,0,1.322,3.72,5.686,5.686,0,0,0,7.309.02,5.056,5.056,0,0,0,1.32-3.74Z"/>
    <path d="M523.108,73.61H512.894l-1.419,4.806h-9.188L513.232,49.3h9.813l10.942,29.117h-9.422Zm-1.865-6.3-3.215-10.467-3.18,10.467Z"/>
    <path d="M536.967,78.416V49.3h14.994a21.8,21.8,0,0,1,6.376.715,6.79,6.79,0,0,1,3.556,2.652,8.223,8.223,0,0,1-2.525,11.748,10.883,10.883,0,0,1-3.16,1.152,8.973,8.973,0,0,1,2.342,1.073,9.064,9.064,0,0,1,1.439,1.531,11.418,11.418,0,0,1,1.26,1.809l4.358,8.437H555.44l-4.809-8.9A6.77,6.77,0,0,0,549,67.274a3.773,3.773,0,0,0-2.2-.675H546V78.416ZM546,61.1H549.8a13.529,13.529,0,0,0,2.383-.4,2.38,2.38,0,0,0,1.46-.914,2.95,2.95,0,0,0-.327-3.853,5.411,5.411,0,0,0-3.358-.755H546Z"/>
    <path d="M568.606,49.3h13.367a16.007,16.007,0,0,1,6.385,1.073,10.371,10.371,0,0,1,4.021,3.078,12.744,12.744,0,0,1,2.3,4.668,21.638,21.638,0,0,1,.715,5.64A19.593,19.593,0,0,1,594.336,71a11.981,11.981,0,0,1-2.949,4.31,9.619,9.619,0,0,1-4.053,2.314,20.837,20.837,0,0,1-5.361.794H568.606Zm9,6.594V71.8h2.2a9.259,9.259,0,0,0,4.013-.626,4.236,4.236,0,0,0,1.866-2.184,13.7,13.7,0,0,0,.676-5.055q0-4.627-1.51-6.336t-5-1.708Z"/>
  </g>
  <g>
    <path d="M249.652,88.106H254.1V102.46h-4.445Z"/>
    <path d="M257.015,92.062h3.711v1.694a5.517,5.517,0,0,1,1.685-1.484,4.428,4.428,0,0,1,2.075-.446,3.4,3.4,0,0,1,2.59.985,4.277,4.277,0,0,1,.934,3.04v6.609h-4V96.742a2.085,2.085,0,0,0-.362-1.386,1.3,1.3,0,0,0-1.019-.406,1.447,1.447,0,0,0-1.174.548A3.2,3.2,0,0,0,261,97.467v4.993h-3.985Z"/>
    <path d="M269.686,99.571l3.955-.372a1.945,1.945,0,0,0,.686,1.009,2.035,2.035,0,0,0,1.174.3,1.977,1.977,0,0,0,1.243-.342.763.763,0,0,0,.344-.635.727.727,0,0,0-.451-.665,8.216,8.216,0,0,0-1.713-.41,17.832,17.832,0,0,1-2.884-.671,3.037,3.037,0,0,1-1.361-1.041,2.712,2.712,0,0,1-.554-1.673,2.743,2.743,0,0,1,.6-1.771,3.556,3.556,0,0,1,1.645-1.109,8.725,8.725,0,0,1,2.81-.368,9.684,9.684,0,0,1,2.746.285,3.573,3.573,0,0,1,1.48.881,4.616,4.616,0,0,1,.983,1.615l-3.779.372a1.3,1.3,0,0,0-.489-.734,2,2,0,0,0-1.136-.313,1.61,1.61,0,0,0-.985.239.717.717,0,0,0-.308.582.621.621,0,0,0,.392.577,6.36,6.36,0,0,0,1.7.352,11.653,11.653,0,0,1,2.957.626,3.262,3.262,0,0,1,1.483,1.144,2.811,2.811,0,0,1,.515,1.634,3.219,3.219,0,0,1-.544,1.751,3.687,3.687,0,0,1-1.714,1.355,8.25,8.25,0,0,1-3.188.5,7.57,7.57,0,0,1-4.058-.812A3.651,3.651,0,0,1,269.686,99.571Z"/>
    <path d="M287.448,88.106v3.956h2.193v2.917h-2.193v3.684a1.979,1.979,0,0,0,.127.88.729.729,0,0,0,.685.332,4.355,4.355,0,0,0,1.234-.254l.293,2.751a12.931,12.931,0,0,1-2.761.323,4.815,4.815,0,0,1-2.194-.381,2.338,2.338,0,0,1-1.042-1.159,6.822,6.822,0,0,1-.337-2.518V94.979h-1.469V92.062h1.469v-1.91Z"/>
    <path d="M295.172,95.43l-3.808-.4a4.258,4.258,0,0,1,.622-1.572,3.423,3.423,0,0,1,1.17-.994,4.882,4.882,0,0,1,1.508-.47,12.143,12.143,0,0,1,2.076-.167,16.473,16.473,0,0,1,2.878.2,3.709,3.709,0,0,1,1.812.837,2.943,2.943,0,0,1,.8,1.249,4.529,4.529,0,0,1,.293,1.542v4.592a5.55,5.55,0,0,0,.093,1.151,5.236,5.236,0,0,0,.407,1.062h-3.74a3.678,3.678,0,0,1-.294-.612,4.652,4.652,0,0,1-.138-.661,5.139,5.139,0,0,1-1.557,1.077,6.479,6.479,0,0,1-2.457.431,4.118,4.118,0,0,1-2.825-.861,2.735,2.735,0,0,1-.964-2.125,2.781,2.781,0,0,1,.695-1.949,4.712,4.712,0,0,1,2.565-1.136q2.243-.45,2.908-.631a13.617,13.617,0,0,0,1.41-.475,1.4,1.4,0,0,0-.3-1.028,1.525,1.525,0,0,0-1.068-.294,2.764,2.764,0,0,0-1.469.313A1.73,1.73,0,0,0,295.172,95.43Zm3.457,2.095q-.824.294-1.713.519a3.975,3.975,0,0,0-1.538.636,1.02,1.02,0,0,0,0,1.5,1.389,1.389,0,0,0,.965.3,2.475,2.475,0,0,0,1.239-.323,1.956,1.956,0,0,0,.812-.788,2.636,2.636,0,0,0,.24-1.209Z"/>
    <path d="M304.916,92.062h3.711v1.694a5.526,5.526,0,0,1,1.684-1.484,4.435,4.435,0,0,1,2.076-.446,3.4,3.4,0,0,1,2.59.985,4.282,4.282,0,0,1,.934,3.04v6.609h-4V96.742a2.085,2.085,0,0,0-.362-1.386,1.3,1.3,0,0,0-1.019-.406,1.446,1.446,0,0,0-1.174.548,3.189,3.189,0,0,0-.451,1.969v4.993h-3.985Z"/>
    <path d="M326.045,98.387l3.789.431a5.3,5.3,0,0,1-1.027,2.051,4.8,4.8,0,0,1-1.826,1.347,7.188,7.188,0,0,1-2.825.479,10.439,10.439,0,0,1-2.757-.308,4.819,4.819,0,0,1-1.895-1,5.042,5.042,0,0,1-1.243-1.619,5.7,5.7,0,0,1-.45-2.465,5.8,5.8,0,0,1,.549-2.671,4.853,4.853,0,0,1,1.095-1.4,5.07,5.07,0,0,1,1.43-.924,7.939,7.939,0,0,1,2.986-.48,6.886,6.886,0,0,1,3.883.911,4.8,4.8,0,0,1,1.875,2.664l-3.75.5a1.739,1.739,0,0,0-.641-1,2.083,2.083,0,0,0-1.249-.338,2.013,2.013,0,0,0-1.6.709,3.213,3.213,0,0,0-.613,2.145,2.8,2.8,0,0,0,.607,1.946,2.007,2.007,0,0,0,1.547.664,2.129,2.129,0,0,0,1.317-.4A2.384,2.384,0,0,0,326.045,98.387Z"/>
    <path d="M343.21,98.25h-7.989a2.566,2.566,0,0,0,.519,1.429,1.885,1.885,0,0,0,1.507.676,2.267,2.267,0,0,0,1.117-.294,2.651,2.651,0,0,0,.7-.656l3.926.362a5.612,5.612,0,0,1-2.174,2.248,7.9,7.9,0,0,1-3.652.68,7.46,7.46,0,0,1-3.25-.583,4.758,4.758,0,0,1-1.963-1.85,5.575,5.575,0,0,1-.78-2.982,5.24,5.24,0,0,1,1.563-3.946,5.949,5.949,0,0,1,4.312-1.508,7.672,7.672,0,0,1,3.526.676,4.57,4.57,0,0,1,1.969,1.959,7.174,7.174,0,0,1,.674,3.339Zm-4.053-1.909a2.674,2.674,0,0,0-.621-1.655,1.952,1.952,0,0,0-2.846.254,2.767,2.767,0,0,0-.459,1.4Z"/>
    <path d="M351.994,88.106h4.435V98.925h6.923v3.535H351.994Z"/>
    <path d="M364.615,97.29a5.2,5.2,0,0,1,1.606-3.921,6.964,6.964,0,0,1,9.057.269,5.661,5.661,0,0,1-.309,7.525,6.081,6.081,0,0,1-4.4,1.532,6.174,6.174,0,0,1-4.054-1.273A5.107,5.107,0,0,1,364.615,97.29Zm4-.01a3.142,3.142,0,0,0,.562,2.057,1.844,1.844,0,0,0,2.83.009,3.243,3.243,0,0,0,.553-2.105A3.067,3.067,0,0,0,372,95.229a1.737,1.737,0,0,0-1.38-.661,1.8,1.8,0,0,0-1.439.671A3.1,3.1,0,0,0,368.61,97.28Z"/>
    <path d="M385.715,92.062h3.731v9.821l.009.459a4.331,4.331,0,0,1-.416,1.866,3.922,3.922,0,0,1-1.1,1.434,4.357,4.357,0,0,1-1.754.794,10.9,10.9,0,0,1-2.433.244q-3.132,0-4.3-.94a3.062,3.062,0,0,1-1.17-2.516c0-.131.007-.307.019-.529l3.868.441a1.254,1.254,0,0,0,.451.744,1.907,1.907,0,0,0,1.106.3,1.674,1.674,0,0,0,1.288-.46,2.367,2.367,0,0,0,.426-1.606v-1.576a3.881,3.881,0,0,1-3.163,1.5,3.942,3.942,0,0,1-3.368-1.821,5.812,5.812,0,0,1-.91-3.418,5.273,5.273,0,0,1,1.173-3.7,4,4,0,0,1,3.076-1.273,4.33,4.33,0,0,1,2,.411,4.375,4.375,0,0,1,1.472,1.362Zm-3.75,5.042a2.465,2.465,0,0,0,.481,1.67,1.7,1.7,0,0,0,2.511-.02,2.479,2.479,0,0,0,.5-1.7,2.548,2.548,0,0,0-.529-1.738,1.656,1.656,0,0,0-1.292-.6,1.5,1.5,0,0,0-1.22.553A2.917,2.917,0,0,0,381.965,97.1Z"/>
    <path d="M392,88.106h3.985v2.712H392Zm0,3.956h3.985v10.4H392Z"/>
    <path d="M398.534,92.062h3.71v1.694a5.526,5.526,0,0,1,1.684-1.484A4.435,4.435,0,0,1,406,91.826a3.4,3.4,0,0,1,2.59.985,4.282,4.282,0,0,1,.935,3.04v6.609h-4V96.742a2.085,2.085,0,0,0-.362-1.386,1.3,1.3,0,0,0-1.019-.406,1.447,1.447,0,0,0-1.174.548,3.189,3.189,0,0,0-.451,1.969v4.993h-3.984Z"/>
  </g>
</svg>
