<svg xmlns="http://www.w3.org/2000/svg" width="91.288" height="142.38" viewBox="0 0 91.288 142.38">
  <title>logo</title>
  <g>
    <g>
      <path d="M44.85,127.429l-.252.2-1.13-1.3-.109-.095-.106-.149-.638-.758A223.658,223.658,0,0,1,26.3,103.19C15.9,87,10.254,73.087,9.523,61.834c-.437-6.737-.6-12.911-.477-18.35l.044-1.959,1.959,0A16.317,16.317,0,0,0,27.317,25.23c0-.529-.027-1.077-.081-1.63l-.166-1.667,17.667-5.056.07.02-.582,2.085.585,2.048L31.331,24.889v.376A20.319,20.319,0,0,1,13.465,45.389l-.437.053,0,.441c-.034,4.747.135,10.026.5,15.69.678,10.416,6.261,24.057,16.147,39.447A219.624,219.624,0,0,0,44.44,121.252l.387.469.192-.234.449-.484a220.691,220.691,0,0,0,14.56-19.983C69.915,85.63,75.5,71.989,76.175,61.573c.369-5.664.537-10.943.5-15.69l0-.441-.437-.053A20.319,20.319,0,0,1,58.373,25.265v-.376l-13.483-3.86.59-2.049-.6-2.079.071-.02.57.155,17.11,4.9L62.467,23.6c-.053.542-.081,1.091-.081,1.63A16.316,16.316,0,0,0,78.653,41.522l1.96,0,.044,1.959c.121,5.45-.039,11.624-.477,18.35C79.449,73.086,73.8,87,63.4,103.19a224.13,224.13,0,0,1-16.316,22.141l-.118.139v.008l-.734.854-1.132,1.3Z" fill="#fff"/>
      <path d="M45.6,17.577l16.5,4.722-.124,1.252c-.055.561-.084,1.126-.084,1.679A16.817,16.817,0,0,0,78.653,42.022l1.471,0,.033,1.471c.121,5.43-.039,11.589-.476,18.306-.726,11.167-6.344,25-16.7,41.118a223.37,223.37,0,0,1-16.278,22.089l-.159.2-.687.8-.818.94-.191-.153-.19.153-.815-.936-.059-.068-.066-.053-.059-.083-.025-.036-.029-.033L43,125.008a223.33,223.33,0,0,1-16.278-22.089C16.366,86.8,10.748,72.967,10.022,61.8c-.437-6.718-.6-12.877-.476-18.306l.033-1.471,1.471,0A16.817,16.817,0,0,0,27.817,25.23c0-.553-.029-1.118-.084-1.679L27.609,22.3,44.1,17.58l-.21.754-.105.378-.076.272.077.271.107.373.3,1.059L31.555,24.3l-.724.207v.753A19.819,19.819,0,0,1,13.406,44.893l-.874.1-.007.88c-.035,4.756.135,10.047.5,15.728.683,10.5,6.293,24.223,16.226,39.685a220.728,220.728,0,0,0,14.8,20.279l.774.939.149-.182.024.035.855-1.042a221.3,221.3,0,0,0,14.593-20.029c9.933-15.462,15.543-29.185,16.226-39.685.369-5.68.539-10.972.5-15.728L77.171,45l-.874-.1A19.819,19.819,0,0,1,58.873,25.264v-.753l-.724-.207L45.51,20.687l.3-1.058.107-.374L46,18.98,45.92,18.7l-.109-.377-.214-.75m-.861-1.22-18.2,5.211.207,2.081c.052.529.079,1.061.079,1.581A15.815,15.815,0,0,1,11.049,41.022l-2.448,0-.054,2.447c-.122,5.459.038,11.647.477,18.393C9.761,73.2,15.432,87.2,25.878,103.46a223.278,223.278,0,0,0,16.355,22.194l.612.723.14.2.107.086,1.445,1.659.314-.252.315.252,1.449-1.663.855-.994v-.01A223.278,223.278,0,0,0,63.825,103.46C74.271,87.2,79.942,73.2,80.679,61.866c.439-6.746.6-12.934.477-18.393L81.1,41.026l-2.448,0A15.815,15.815,0,0,1,62.886,25.23c0-.52.027-1.052.079-1.581l.207-2.081L45.653,16.553l-.7-.191-.1.028-.115-.033Zm.115,3-.106-.373.105-.377.108.377-.107.373Zm-.026,101.581A220.081,220.081,0,0,1,30.1,100.75C20.255,85.431,14.7,71.872,14.027,61.541c-.368-5.666-.537-10.92-.5-15.655A20.844,20.844,0,0,0,31.83,25.266l13.021-3.727,13.022,3.727a20.844,20.844,0,0,0,18.305,20.62c.035,4.735-.134,9.989-.5,15.655-.671,10.331-6.228,23.89-16.069,39.209a220.148,220.148,0,0,1-14.525,19.936l-.024-.036-.233.284Z"/>
    </g>
    <path d="M44.758,18.968l-.018,0L29.232,23.4q.09.9.091,1.828a18.3,18.3,0,0,1-18.27,18.3c-.119,5.307.028,11.338.472,18.175,1.7,26.117,31.129,60.611,33.215,63.025v.007c.057.066.1.111.108.126l0,0,0,0c.012-.015.051-.06.108-.126v-.007C47.049,122.315,76.48,87.821,78.178,61.7c.444-6.837.591-12.868.472-18.175a18.3,18.3,0,0,1-18.27-18.3q0-.926.091-1.828L44.963,18.963l-.018,0" fill="#1fbcd3" stroke="#000" stroke-miterlimit="10"/>
  </g>
</svg>
