<svg xmlns="http://www.w3.org/2000/svg" width="690.086" height="142.38" viewBox="0 0 690.086 142.38">
  <title>logo</title>
  <g>
    <g>
      <path d="M624.506,122.334l-.11-.1-.106-.149-.638-.758A224.064,224.064,0,0,1,607.336,99.19C596.935,83,591.291,69.085,590.56,57.834c-.438-6.732-.6-12.906-.477-18.35l.044-1.959,1.959,0A16.316,16.316,0,0,0,608.353,21.23c0-.537-.027-1.086-.081-1.63l-.165-1.667,17.667-5.056.071.02-.583,2.085.587,2.048-13.481,3.859v.376A20.32,20.32,0,0,1,594.5,41.389l-.437.053,0,.441c-.035,4.74.135,10.02.5,15.69.677,10.415,6.261,24.056,16.147,39.447a220.274,220.274,0,0,0,14.764,20.232l.387.469.192-.234.451-.484A221.231,221.231,0,0,0,641.065,97.02c9.886-15.39,15.47-29.031,16.147-39.447.368-5.666.537-10.945.5-15.69l0-.441-.437-.053A20.318,20.318,0,0,1,639.41,21.265v-.376L625.93,17.03l.585-2.05-.6-2.079.069-.02.569.155,17.112,4.9-.165,1.667c-.054.548-.082,1.1-.082,1.63A16.317,16.317,0,0,0,659.69,37.522l1.96,0,.043,1.959c.122,5.442-.038,11.616-.476,18.35C660.486,69.086,654.841,83,644.441,99.19a224.064,224.064,0,0,1-16.316,22.141l-.118.139v.008l-.735.854-1.131,1.3-.252-.2-.253.2Z" fill="#fff"/>
      <path d="M626.633,13.577l16.5,4.722-.124,1.252c-.055.561-.084,1.126-.084,1.679A16.817,16.817,0,0,0,659.69,38.022l1.471,0,.033,1.471c.121,5.43-.039,11.589-.476,18.306-.726,11.167-6.344,25-16.7,41.118a223.2,223.2,0,0,1-16.278,22.089l-.159.2-.687.8-.818.94-.191-.153-.19.153-.815-.936-.059-.068-.067-.053-.058-.083-.025-.036-.029-.033-.611-.724a223.2,223.2,0,0,1-16.278-22.089C597.4,82.8,591.785,68.968,591.059,57.8c-.437-6.717-.6-12.876-.476-18.306l.033-1.471,1.471,0A16.817,16.817,0,0,0,608.854,21.23c0-.553-.029-1.118-.084-1.679l-.124-1.252,16.488-4.719-.21.754-.106.378-.075.272.077.271.107.373.3,1.059L612.592,20.3l-.724.207v.753a19.819,19.819,0,0,1-17.424,19.629l-.874.1-.007.88c-.035,4.756.135,10.048.5,15.728.682,10.5,6.293,24.223,16.226,39.685a220.728,220.728,0,0,0,14.8,20.279l.774.939.149-.182.024.035.855-1.042a221.3,221.3,0,0,0,14.593-20.029c9.933-15.462,15.543-29.185,16.226-39.685.369-5.68.539-10.972.5-15.728l-.007-.88-.874-.1A19.819,19.819,0,0,1,639.91,21.264v-.753l-.724-.207-12.638-3.617.3-1.059.107-.373.078-.275-.079-.276-.108-.377-.215-.75m-.86-1.22-18.205,5.211.207,2.081c.052.529.079,1.061.079,1.581a15.815,15.815,0,0,1-15.768,15.792l-2.448,0-.054,2.447c-.122,5.459.038,11.647.477,18.393C590.8,69.2,596.468,83.2,606.915,99.46a223.278,223.278,0,0,0,16.355,22.194l.612.723.14.2.107.086,1.445,1.659.314-.252.315.252,1.448-1.663.856-.994v-.01A223.278,223.278,0,0,0,644.862,99.46C655.308,83.2,660.979,69.2,661.716,57.866c.439-6.746.6-12.934.477-18.393l-.054-2.447-2.448,0A15.815,15.815,0,0,1,643.923,21.23c0-.52.027-1.052.079-1.581l.207-2.081L626.69,12.553l-.7-.191-.1.028-.115-.033Zm.115,3-.106-.373.1-.377.108.377-.107.373Zm-.026,101.581A220.081,220.081,0,0,1,611.133,96.75c-9.841-15.319-15.4-28.878-16.069-39.209-.369-5.666-.537-10.92-.5-15.655a20.844,20.844,0,0,0,18.3-20.62l13.021-3.727,13.022,3.727a20.844,20.844,0,0,0,18.305,20.62c.035,4.735-.134,9.989-.5,15.655-.672,10.331-6.228,23.89-16.069,39.209a220.148,220.148,0,0,1-14.525,19.936l-.024-.036-.233.284Z"/>
    </g>
    <path d="M625.795,14.968l-.018-.005L610.269,19.4q.09.9.091,1.828a18.3,18.3,0,0,1-18.27,18.3c-.119,5.307.028,11.338.472,18.175,1.7,26.117,31.129,60.611,33.215,63.025v.007c.057.066.1.111.108.126l0,0,0,0,.109-.126v-.007c2.086-2.414,31.517-36.908,33.215-63.025.444-6.837.591-12.868.472-18.175a18.3,18.3,0,0,1-18.27-18.3q0-.926.091-1.828L626,14.963l-.018.005" fill="#1fbcd3" stroke="#000" stroke-miterlimit="10"/>
  </g>
  <g>
    <path d="M30.249,74.61H20.035l-1.419,4.806H9.429L20.373,50.3h9.814L41.128,79.416H31.706Zm-1.866-6.3L25.169,57.847l-3.18,10.467Z"/>
    <path d="M41.307,50.3h8.545l3.077,16.3,4.5-16.3h8.515l4.514,16.279L73.541,50.3h8.5L75.624,79.416H66.8L61.7,61.084,56.607,79.416H47.785Z"/>
    <path d="M83.413,69.783l8.561-.536a6.531,6.531,0,0,0,1.131,3.178,4.757,4.757,0,0,0,3.973,1.768,4.4,4.4,0,0,0,2.969-.9,2.708,2.708,0,0,0,1.043-2.095,2.671,2.671,0,0,0-.993-2.026q-.995-.894-4.608-1.688-5.919-1.332-8.441-3.536a7.107,7.107,0,0,1-2.543-5.621,7.63,7.63,0,0,1,1.3-4.24,8.617,8.617,0,0,1,3.912-3.138,18.256,18.256,0,0,1,7.16-1.142q5.58,0,8.511,2.075t3.485,6.6l-8.481.5a3.963,3.963,0,0,0-4.409-3.754,3.608,3.608,0,0,0-2.363.665,2.038,2.038,0,0,0-.794,1.619,1.618,1.618,0,0,0,.655,1.251A7.366,7.366,0,0,0,96.5,59.833a37.779,37.779,0,0,1,8.451,2.572,8.883,8.883,0,0,1,3.714,3.228,8.184,8.184,0,0,1,1.162,4.309,9.238,9.238,0,0,1-1.549,5.164,9.69,9.69,0,0,1-4.33,3.585,17.484,17.484,0,0,1-7.011,1.222q-7.429,0-10.289-2.86A11.282,11.282,0,0,1,83.413,69.783Z"/>
    <path d="M112.272,65.672H124.03v6.256H112.272Z"/>
    <path d="M126.334,69.783l8.56-.536a6.531,6.531,0,0,0,1.132,3.178A4.756,4.756,0,0,0,140,74.193a4.4,4.4,0,0,0,2.97-.9,2.708,2.708,0,0,0,1.043-2.095,2.669,2.669,0,0,0-.994-2.026q-.993-.894-4.607-1.688-5.919-1.332-8.441-3.536a7.107,7.107,0,0,1-2.543-5.621,7.637,7.637,0,0,1,1.3-4.24,8.625,8.625,0,0,1,3.913-3.138A18.252,18.252,0,0,1,139.8,49.8q5.58,0,8.51,2.075t3.486,6.6l-8.481.5a3.963,3.963,0,0,0-4.409-3.754,3.608,3.608,0,0,0-2.363.665,2.039,2.039,0,0,0-.8,1.619,1.619,1.619,0,0,0,.656,1.251,7.366,7.366,0,0,0,3.019,1.073,37.779,37.779,0,0,1,8.451,2.572,8.883,8.883,0,0,1,3.714,3.228,8.184,8.184,0,0,1,1.162,4.309,9.238,9.238,0,0,1-1.549,5.164,9.693,9.693,0,0,1-4.331,3.585,17.478,17.478,0,0,1-7.01,1.222q-7.43,0-10.289-2.86A11.277,11.277,0,0,1,126.334,69.783Z"/>
    <path d="M175.179,74.61H164.964l-1.419,4.806h-9.187L165.3,50.3h9.814l10.941,29.117h-9.421Zm-1.867-6.3L170.1,57.847l-3.181,10.467Z"/>
    <path d="M202.821,68.87V62.812h13.9V75.225a28.441,28.441,0,0,1-7.061,3.7,23.945,23.945,0,0,1-7.279.984,17.693,17.693,0,0,1-8.452-1.768,12.089,12.089,0,0,1-5.064-5.263,17.294,17.294,0,0,1-1.8-8.024,16.749,16.749,0,0,1,1.966-8.292,12.733,12.733,0,0,1,5.76-5.353,18.738,18.738,0,0,1,7.964-1.41,22.4,22.4,0,0,1,7.22.873,9.38,9.38,0,0,1,3.972,2.712,12.037,12.037,0,0,1,2.374,4.657l-8.68,1.549a4.7,4.7,0,0,0-1.818-2.522,5.673,5.673,0,0,0-3.267-.874,5.889,5.889,0,0,0-4.717,2.056q-1.756,2.055-1.757,6.5,0,4.728,1.777,6.753a6.245,6.245,0,0,0,4.956,2.026,9.406,9.406,0,0,0,2.88-.437,15.553,15.553,0,0,0,3.138-1.489V68.87Z"/>
    <path d="M222.046,50.3h24.112v6.217H231.063v4.628h14v5.938h-14v5.74H246.6v6.594H222.046Z"/>
    <path d="M251.342,50.3h11.833l4.563,17.717,4.53-17.717h11.826V79.416h-7.369v-22.2l-5.677,22.205h-6.67l-5.667-22.2V79.416h-7.369Z"/>
    <path d="M307.734,74.61H297.52l-1.42,4.806h-9.186L297.858,50.3h9.814l10.941,29.117h-9.422Zm-1.866-6.3-3.214-10.467-3.18,10.467Z"/>
    <path d="M321.513,50.3h9v11l9.424-11H351.9l-10.626,10.99,11.1,18.127H341.3l-6.139-11.974-4.648,4.869v7.1h-9Z"/>
    <path d="M355.337,50.3h24.112v6.217h-15.1v4.628h14v5.938h-14v5.74h15.532v6.594H355.337Z"/>
    <path d="M384.851,79.416V50.3h15a21.811,21.811,0,0,1,6.376.715,6.8,6.8,0,0,1,3.555,2.652,8.22,8.22,0,0,1-2.525,11.748,10.875,10.875,0,0,1-3.159,1.152,6.087,6.087,0,0,1,3.78,2.6,11.44,11.44,0,0,1,1.261,1.809l4.357,8.437H403.325l-4.809-8.9a6.784,6.784,0,0,0-1.629-2.244,3.778,3.778,0,0,0-2.2-.675h-.794V79.416ZM393.888,62.1h3.793a13.535,13.535,0,0,0,2.384-.4,2.375,2.375,0,0,0,1.459-.914,2.947,2.947,0,0,0-.327-3.853,5.409,5.409,0,0,0-3.357-.755h-3.952Z"/>
    <path d="M414.286,65.672h11.758v6.256H414.286Z"/>
    <path d="M444.555,68.87V62.812h13.9V75.225a28.42,28.42,0,0,1-7.06,3.7,23.945,23.945,0,0,1-7.279.984,17.691,17.691,0,0,1-8.452-1.768,12.089,12.089,0,0,1-5.064-5.263,17.294,17.294,0,0,1-1.8-8.024,16.749,16.749,0,0,1,1.966-8.292,12.728,12.728,0,0,1,5.76-5.353A18.738,18.738,0,0,1,444.5,49.8a22.4,22.4,0,0,1,7.22.873,9.38,9.38,0,0,1,3.972,2.712,12.023,12.023,0,0,1,2.373,4.657l-8.679,1.549a4.7,4.7,0,0,0-1.818-2.522A5.673,5.673,0,0,0,444.3,56.2a5.889,5.889,0,0,0-4.717,2.056q-1.757,2.055-1.757,6.5,0,4.728,1.777,6.753a6.245,6.245,0,0,0,4.956,2.026,9.4,9.4,0,0,0,2.879-.437,15.533,15.533,0,0,0,3.139-1.489V68.87Z"/>
    <path d="M482.748,50.3h8.977V67.647a14.612,14.612,0,0,1-.8,4.872,10.525,10.525,0,0,1-2.522,4.01,10.059,10.059,0,0,1-3.605,2.411,18.129,18.129,0,0,1-6.3.973,39.509,39.509,0,0,1-4.638-.3,12.136,12.136,0,0,1-4.2-1.181,10.537,10.537,0,0,1-3.089-2.51,9.212,9.212,0,0,1-1.916-3.355,17.39,17.39,0,0,1-.835-4.922V50.3H472.8V68.06a5.064,5.064,0,0,0,1.321,3.72,5.686,5.686,0,0,0,7.309.02,5.056,5.056,0,0,0,1.32-3.74Z"/>
    <path d="M514.194,74.61H503.98l-1.42,4.806h-9.186L504.318,50.3h9.814l10.941,29.117h-9.422Zm-1.866-6.3-3.214-10.467-3.18,10.467Z"/>
    <path d="M528.053,79.416V50.3h15a21.808,21.808,0,0,1,6.375.715,6.787,6.787,0,0,1,3.555,2.652,8.219,8.219,0,0,1-2.524,11.748,10.894,10.894,0,0,1-3.16,1.152,6.086,6.086,0,0,1,3.781,2.6,11.418,11.418,0,0,1,1.26,1.809l4.358,8.437H546.526l-4.809-8.9a6.77,6.77,0,0,0-1.629-2.244,3.777,3.777,0,0,0-2.2-.675h-.795V79.416ZM537.089,62.1h3.794a13.529,13.529,0,0,0,2.383-.4,2.377,2.377,0,0,0,1.46-.914,2.949,2.949,0,0,0-.328-3.853,5.406,5.406,0,0,0-3.356-.755h-3.953Z"/>
    <path d="M559.692,50.3h13.366a16.012,16.012,0,0,1,6.386,1.073,10.389,10.389,0,0,1,4.022,3.078,12.757,12.757,0,0,1,2.3,4.668,21.681,21.681,0,0,1,.715,5.64A19.593,19.593,0,0,1,585.422,72a11.981,11.981,0,0,1-2.949,4.31,9.622,9.622,0,0,1-4.052,2.314,20.858,20.858,0,0,1-5.363.794H559.692Zm9,6.594V72.8h2.2a9.265,9.265,0,0,0,4.013-.626,4.241,4.241,0,0,0,1.866-2.184,13.7,13.7,0,0,0,.676-5.055q0-4.627-1.51-6.336t-5-1.708Z"/>
  </g>
  <g>
    <path d="M249.979,101.091h-5.036l-.7,2.369h-4.529l5.4-14.354h4.839l5.394,14.354H250.7Zm-.921-3.1-1.584-5.161-1.568,5.161Z"/>
    <path d="M267.434,89.106V103.46H263.7v-1.537a5.02,5.02,0,0,1-1.43,1.322,4.08,4.08,0,0,1-1.919.45,3.708,3.708,0,0,1-3.246-1.615,6.72,6.72,0,0,1-1.121-3.927,5.709,5.709,0,0,1,1.239-3.956,4.056,4.056,0,0,1,3.148-1.371,4.385,4.385,0,0,1,1.689.314,3.841,3.841,0,0,1,1.346.94V89.106Zm-4,9.126a2.743,2.743,0,0,0-.519-1.827,1.657,1.657,0,0,0-1.312-.6,1.448,1.448,0,0,0-1.165.578,3.106,3.106,0,0,0-.47,1.939,2.928,2.928,0,0,0,.485,1.865,1.492,1.492,0,0,0,1.2.592,1.607,1.607,0,0,0,1.273-.6A2.994,2.994,0,0,0,263.439,98.232Z"/>
    <path d="M269.892,93.062h3.721v1.517a5.2,5.2,0,0,1,1.622-1.351,4.449,4.449,0,0,1,1.976-.4,3.78,3.78,0,0,1,1.971.441,3.285,3.285,0,0,1,1.187,1.312,6.017,6.017,0,0,1,1.711-1.385,4.42,4.42,0,0,1,1.907-.368,3.419,3.419,0,0,1,2.611,1,4.4,4.4,0,0,1,.938,3.108v6.531h-4V97.536a1.669,1.669,0,0,0-.273-1.048,1.2,1.2,0,0,0-.995-.538,1.41,1.41,0,0,0-1.132.509,2.518,2.518,0,0,0-.43,1.635v5.366h-3.994V97.732a3.6,3.6,0,0,0-.079-.93,1.273,1.273,0,0,0-.442-.632,1.18,1.18,0,0,0-.737-.24,1.417,1.417,0,0,0-1.13.519,2.622,2.622,0,0,0-.442,1.7v5.307h-4Z"/>
    <path d="M290.062,89.106h3.986v2.712h-3.986Zm0,3.956h3.986v10.4h-3.986Z"/>
    <path d="M296.594,93.062h3.711v1.694a5.526,5.526,0,0,1,1.684-1.484,4.435,4.435,0,0,1,2.076-.446,3.4,3.4,0,0,1,2.59.985,4.282,4.282,0,0,1,.935,3.04v6.609h-4V97.742a2.085,2.085,0,0,0-.362-1.386,1.3,1.3,0,0,0-1.019-.406,1.447,1.447,0,0,0-1.174.548,3.189,3.189,0,0,0-.451,1.969v4.993h-3.985Z"/>
    <path d="M310.116,89.106H314.1v2.712h-3.985Zm0,3.956H314.1v10.4h-3.985Z"/>
    <path d="M315.942,100.571l3.955-.372a1.945,1.945,0,0,0,.686,1.009,2.039,2.039,0,0,0,1.175.3,1.981,1.981,0,0,0,1.243-.342.762.762,0,0,0,.343-.635.727.727,0,0,0-.451-.665,8.2,8.2,0,0,0-1.713-.41,17.841,17.841,0,0,1-2.883-.671,3.039,3.039,0,0,1-1.362-1.041,2.711,2.711,0,0,1-.553-1.673,2.742,2.742,0,0,1,.6-1.771,3.561,3.561,0,0,1,1.645-1.109,8.731,8.731,0,0,1,2.811-.368,9.689,9.689,0,0,1,2.746.285,3.569,3.569,0,0,1,1.479.881,4.6,4.6,0,0,1,.984,1.615l-3.78.372a1.3,1.3,0,0,0-.489-.734,2,2,0,0,0-1.136-.313,1.607,1.607,0,0,0-.984.239.716.716,0,0,0-.309.582.621.621,0,0,0,.392.577,6.37,6.37,0,0,0,1.7.352,11.653,11.653,0,0,1,2.957.626,3.257,3.257,0,0,1,1.483,1.144,2.81,2.81,0,0,1,.514,1.634,3.217,3.217,0,0,1-.543,1.751,3.684,3.684,0,0,1-1.713,1.355,8.257,8.257,0,0,1-3.188.5,7.568,7.568,0,0,1-4.058-.812A3.649,3.649,0,0,1,315.942,100.571Z"/>
    <path d="M333.7,89.106v3.956H335.9v2.917H333.7v3.684a1.979,1.979,0,0,0,.127.88.73.73,0,0,0,.685.332,4.348,4.348,0,0,0,1.234-.254l.294,2.751a12.938,12.938,0,0,1-2.761.323,4.809,4.809,0,0,1-2.194-.381,2.329,2.329,0,0,1-1.042-1.159,6.818,6.818,0,0,1-.338-2.518V95.979H328.24V93.062h1.469v-1.91Z"/>
    <path d="M337.836,93.062h3.73v1.7a4.072,4.072,0,0,1,1.112-1.523,2.343,2.343,0,0,1,1.415-.416,4.2,4.2,0,0,1,1.928.549l-1.233,2.84a3.13,3.13,0,0,0-1.117-.294,1.377,1.377,0,0,0-1.214.646,6.569,6.569,0,0,0-.616,3.407v3.486h-4Z"/>
    <path d="M350.673,96.43l-3.809-.4a4.258,4.258,0,0,1,.622-1.572,3.433,3.433,0,0,1,1.17-.994,4.873,4.873,0,0,1,1.508-.47,12.152,12.152,0,0,1,2.076-.167,16.473,16.473,0,0,1,2.878.2,3.7,3.7,0,0,1,1.812.837,2.943,2.943,0,0,1,.8,1.249,4.5,4.5,0,0,1,.293,1.542v4.592a5.47,5.47,0,0,0,.094,1.151,5.163,5.163,0,0,0,.406,1.062h-3.74a3.678,3.678,0,0,1-.294-.612,4.514,4.514,0,0,1-.138-.661,5.148,5.148,0,0,1-1.556,1.077,6.488,6.488,0,0,1-2.458.431,4.115,4.115,0,0,1-2.825-.861,2.739,2.739,0,0,1-.964-2.125,2.781,2.781,0,0,1,.695-1.949,4.708,4.708,0,0,1,2.565-1.136q2.243-.45,2.908-.631a13.538,13.538,0,0,0,1.41-.475,1.4,1.4,0,0,0-.3-1.028,1.525,1.525,0,0,0-1.067-.294,2.76,2.76,0,0,0-1.469.313A1.714,1.714,0,0,0,350.673,96.43Zm3.456,2.095q-.822.294-1.713.519a3.975,3.975,0,0,0-1.538.636,1.023,1.023,0,0,0,0,1.5,1.389,1.389,0,0,0,.965.3,2.475,2.475,0,0,0,1.239-.323,1.965,1.965,0,0,0,.813-.788,2.65,2.65,0,0,0,.239-1.209Z"/>
    <path d="M364.88,89.106v3.956h2.194v2.917H364.88v3.684a1.979,1.979,0,0,0,.127.88.731.731,0,0,0,.686.332,4.355,4.355,0,0,0,1.234-.254l.293,2.751a12.931,12.931,0,0,1-2.761.323,4.807,4.807,0,0,1-2.193-.381,2.326,2.326,0,0,1-1.043-1.159,6.818,6.818,0,0,1-.338-2.518V95.979h-1.469V93.062h1.469v-1.91Z"/>
    <path d="M369.12,89.106h3.985v2.712H369.12Zm0,3.956h3.985v10.4H369.12Z"/>
    <path d="M375.161,98.29a5.2,5.2,0,0,1,1.606-3.921,6.965,6.965,0,0,1,9.058.269,5.664,5.664,0,0,1-.309,7.525,6.084,6.084,0,0,1-4.4,1.532,6.174,6.174,0,0,1-4.054-1.273A5.108,5.108,0,0,1,375.161,98.29Zm4-.01a3.136,3.136,0,0,0,.563,2.057,1.843,1.843,0,0,0,2.829.009,3.243,3.243,0,0,0,.553-2.105,3.067,3.067,0,0,0-.558-2.012,1.736,1.736,0,0,0-1.381-.661,1.805,1.805,0,0,0-1.439.671A3.105,3.105,0,0,0,379.157,98.28Z"/>
    <path d="M389.027,93.062h3.711v1.694a5.515,5.515,0,0,1,1.684-1.484,4.434,4.434,0,0,1,2.075-.446,3.4,3.4,0,0,1,2.59.985,4.278,4.278,0,0,1,.935,3.04v6.609h-4V97.742a2.085,2.085,0,0,0-.362-1.386,1.3,1.3,0,0,0-1.019-.406,1.449,1.449,0,0,0-1.175.548,3.2,3.2,0,0,0-.45,1.969v4.993h-3.985Z"/>
  </g>
</svg>
